<svg xmlns="http://www.w3.org/2000/svg" viewBox="0 0 512 512">
  <path d="M256 40
  C190 10 90 60 70 140
  C20 160 10 250 55 300
  C15 370 70 450 150 445
  C165 495 220 510 256 470
  L256 40Z"
  fill="#EC5FA8" stroke="#000" stroke-width="20"/>

  <path d="M256 40
  C322 10 422 60 442 140
  C492 160 502 250 457 300
  C497 370 442 450 362 445
  C347 495 292 510 256 470
  L256 40Z"
  fill="#59D6E9" stroke="#000" stroke-width="20"/>

  <line x1="256" y1="40" x2="256" y2="470"
  stroke="#000" stroke-width="20" stroke-linecap="round"/>

  <!-- Left brain curves -->
  <path d="M190 130 C210 160 205 200 170 220"
  stroke="#000" stroke-width="18" fill="none" stroke-linecap="round"/>

  <path d="M150 250 C110 270 95 320 120 360"
  stroke="#000" stroke-width="18" fill="none" stroke-linecap="round"/>

  <path d="M190 350 C185 390 205 420 235 435"
  stroke="#000" stroke-width="18" fill="none" stroke-linecap="round"/>

  <!-- Right AI circuit -->
  <path d="M256 140 H330 C360 140 380 120 380 90"
  stroke="#000" stroke-width="18" fill="none" stroke-linecap="round"/>

  <circle cx="380" cy="90" r="22" fill="#000"/>
  <circle cx="380" cy="90" r="8" fill="#fff"/>

  <path d="M256 240 H360 C395 240 415 210 415 160"
  stroke="#000" stroke-width="18" fill="none" stroke-linecap="round"/>

  <circle cx="415" cy="160" r="22" fill="#000"/>
  <circle cx="415" cy="160" r="8" fill="#fff"/>

  <path d="M256 340 H350 C385 340 400 370 400 410"
  stroke="#000" stroke-width="18" fill="none" stroke-linecap="round"/>

  <circle cx="400" cy="410" r="22" fill="#000"/>
  <circle cx="400" cy="410" r="8" fill="#fff"/>

  <path d="M256 400 H300 C330 400 345 420 345 460"
  stroke="#000" stroke-width="18" fill="none" stroke-linecap="round"/>

  <circle cx="345" cy="460" r="22" fill="#000"/>
  <circle cx="345" cy="460" r="8" fill="#fff"/>
</svg>
